<?xml version="1.0" encoding="UTF-8" standalone="no"?>
<!-- Created with Inkscape (http://www.inkscape.org/) -->

<svg
   width="66mm"
   height="66mm"
   viewBox="0 0 66 66"
   version="1.1"
   id="svg1"
   inkscape:version="1.4.3 (fcd0343856, 2026-01-01)"
   sodipodi:docname="repoLens.svg"
   xmlns:inkscape="http://www.inkscape.org/namespaces/inkscape"
   xmlns:sodipodi="http://sodipodi.sourceforge.net/DTD/sodipodi-0.dtd"
   xmlns="http://www.w3.org/2000/svg"
   xmlns:svg="http://www.w3.org/2000/svg">
  <sodipodi:namedview
     id="namedview1"
     pagecolor="#ffffff"
     bordercolor="#000000"
     borderopacity="0.25"
     inkscape:showpageshadow="2"
     inkscape:pageopacity="0.0"
     inkscape:pagecheckerboard="0"
     inkscape:deskcolor="#d1d1d1"
     inkscape:document-units="mm"
     inkscape:zoom="0.74118967"
     inkscape:cx="397.33419"
     inkscape:cy="281.9791"
     inkscape:window-width="1920"
     inkscape:window-height="1031"
     inkscape:window-x="0"
     inkscape:window-y="25"
     inkscape:window-maximized="1"
     inkscape:current-layer="layer1" />
  <defs
     id="defs1" />
  <g
     inkscape:label="Layer 1"
     inkscape:groupmode="layer"
     id="layer1">
    <g
       id="g1"
       transform="matrix(0.58193725,0,0,0.5680703,8.5521319,3.0689391)">
      <path
         fill="#050505"
         d="m 10.988496,-5.1868122 c 4.505325,-0.1249627 9.623425,-0.041619 14.162352,-0.055615 l 27.383052,-0.049239 13.088937,0.045535 c 3.3782,0.00757 7.698581,-0.1363927 10.9474,0.4774142 4.598194,0.8770143 8.881798,2.9565335 12.415044,6.0269701 10.715095,9.3603769 9.092141,19.6682519 9.077854,32.3656059 l -0.01984,25.801373 0.004,16.006233 c 0.0074,3.691202 0.185208,8.933656 -0.495565,12.415308 -0.880533,4.66434 -3.028421,8.996098 -6.207918,12.520607 -4.536282,5.10726 -11.367823,8.67701 -18.217621,9.08262 -5.660496,0.25559 -11.952287,0.0783 -17.670727,0.0442 l -21.679958,0.0209 -14.681994,-0.01 c -3.544622,2.7e-4 -8.165041,0.17807 -11.5522369,-0.46355 -4.7545625,-0.90037 -9.1638437,-3.02392 -12.7891645,-6.17405 -5.2125566,-4.529664 -8.9447686,-11.489 -9.2030016,-18.436429 -0.151607,-4.079081 -0.05265,-8.832849 -0.04921,-12.999772 l 0.005,-24.095869 -0.02064,-17.763066 c -0.004,-4.271698 -0.24765,-9.754658 0.582348,-13.846175 0.972873,-4.682781 3.209395,-9.0096185 6.4674746,-12.5110878 4.8921458,-5.3622574 11.2572269,-8.0707176 18.4544224,-8.4023728 z"
         id="path2"
         style="stroke-width:0.264583" />
      <path
         fill="#ffffff"
         d="m 42.211446,24.974629 c 6.685227,-0.375973 14.180873,1.192213 20.182416,4.026165 10.777008,5.088731 21.45956,13.306689 27.694202,23.547387 L 89.126039,53.76791 C 80.957822,64.03242 69.53576,73.543397 56.869098,77.623801 53.672931,78.65356 50.503223,79.158385 47.17794,79.535151 42.10376,79.805555 38.374988,79.433816 33.463263,78.039726 21.79699,74.728995 11.771134,66.668993 3.9701589,57.601458 2.5141568,55.909183 0.06596724,52.824935 -1.0048015,50.904325 -0.0033536,49.518966 1.4219568,47.782241 2.5731589,46.504304 13.019702,34.909733 26.322688,25.972902 42.211446,24.974629 Z"
         id="path3"
         style="stroke-width:0.264583" />
      <path
         fill="#050505"
         d="m 42.580804,32.525308 c 10.640219,-0.737923 19.863858,7.2898 20.601252,17.930019 C 63.91945,61.095545 55.891727,70.31892 45.251508,71.056314 34.611554,71.793443 25.388444,63.765985 24.65105,53.126031 23.913657,42.486077 31.94085,33.262966 42.580804,32.525308 Z"
         id="path4"
         style="stroke-width:0.264583" />
      <path
         fill="#ffffff"
         d="m 42.949369,40.308291 c 6.32116,-0.538162 11.878468,4.156605 12.40446,10.478559 0.525992,6.322218 -4.179094,11.870795 -10.502106,12.384881 C 38.545644,63.684229 33.015058,58.994489 32.49039,52.689204 31.965721,46.384183 36.645406,40.844602 42.949369,40.308291 Z"
         id="path5"
         style="stroke-width:0.264583" />
      <path
         fill="#3a5eea"
         d="m -7.5802264,50.280966 c 0.2661708,0.220134 1.1440583,2.524919 1.3297958,2.973652 1.1646958,2.867819 2.4712083,5.675842 3.9153041,8.413486 3.25252289,6.139656 7.3067333,11.819731 12.056004,16.890999 9.7710625,10.459509 20.7113185,18.287736 35.0292455,20.991248 4.239948,0.800369 8.173508,1.068389 12.484894,1.216819 l -1.830388,0.42413 c -4.290748,0.78634 -7.957608,1.35757 -12.352073,1.36287 C 29.690834,102.48564 16.90405,97.109305 7.5081671,87.608912 -2.1311327,77.941037 -7.593191,63.895102 -7.5802264,50.280966 Z"
         id="path6"
         style="stroke-width:0.264583" />
      <path
         fill="#3a5eea"
         d="M 8.4432046,5.3523091 C 14.85935,4.7828993 20.52699,9.5107389 21.11754,15.924821 21.70809,22.33885 16.999036,28.022364 10.587123,28.634081 4.1447839,29.248708 -1.5710098,24.512667 -2.1642057,18.06874 -2.7576661,11.624469 1.997161,5.9243647 8.4432046,5.3523091 Z"
         id="path7"
         style="stroke-width:0.264583" />
    </g>
  </g>
</svg>
